0
SECTION
2
HEADER
9
$INSUNITS
70
4
0
ENDSEC
0
SECTION
2
TABLES
0
TABLE
2
LTYPE
0
LTYPE
72
65
70
64
2
CONTINUOUS
3
______
73
0
40
0
0
ENDTAB
0
TABLE
2
LAYER
0
ENDTAB
0
ENDSEC
0
SECTION
2
ENTITIES
0
LINE
8
0
10
3.025
20
-2.525
11
16.025
21
-2.525
0
LINE
8
0
10
3.025
20
-16.525
11
16.025
21
-16.525
0
LINE
8
0
10
2.525
20
-3.025
11
2.525
21
-16.025
0
LINE
8
0
10
16.525
20
-3.025
11
16.525
21
-16.025
0
ARC
8
0
10
3.025
20
-3.025
40
0.5
50
90
51
180
0
ARC
8
0
10
16.025
20
-3.025
40
0.5
50
0
51
90
0
ARC
8
0
10
3.025
20
-16.025
40
0.5
50
180
51
270
0
ARC
8
0
10
16.025
20
-16.025
40
0.5
50
270
51
0
0
LINE
8
0
10
22.075
20
-2.525
11
35.075
21
-2.525
0
LINE
8
0
10
22.075
20
-16.525
11
35.075
21
-16.525
0
LINE
8
0
10
21.575
20
-3.025
11
21.575
21
-16.025
0
LINE
8
0
10
35.575
20
-3.025
11
35.575
21
-16.025
0
ARC
8
0
10
22.075
20
-3.025
40
0.5
50
90
51
180
0
ARC
8
0
10
35.075
20
-3.025
40
0.5
50
0
51
90
0
ARC
8
0
10
22.075
20
-16.025
40
0.5
50
180
51
270
0
ARC
8
0
10
35.075
20
-16.025
40
0.5
50
270
51
0
0
LINE
8
0
10
41.125
20
-2.525
11
54.125
21
-2.525
0
LINE
8
0
10
41.125
20
-16.525
11
54.125
21
-16.525
0
LINE
8
0
10
40.625
20
-3.025
11
40.625
21
-16.025
0
LINE
8
0
10
54.625
20
-3.025
11
54.625
21
-16.025
0
ARC
8
0
10
41.125
20
-3.025
40
0.5
50
90
51
180
0
ARC
8
0
10
54.125
20
-3.025
40
0.5
50
0
51
90
0
ARC
8
0
10
41.125
20
-16.025
40
0.5
50
180
51
270
0
ARC
8
0
10
54.125
20
-16.025
40
0.5
50
270
51
0
0
LINE
8
0
10
60.175
20
-2.525
11
73.175
21
-2.525
0
LINE
8
0
10
60.175
20
-16.525
11
73.175
21
-16.525
0
LINE
8
0
10
59.675
20
-3.025
11
59.675
21
-16.025
0
LINE
8
0
10
73.675
20
-3.025
11
73.675
21
-16.025
0
ARC
8
0
10
60.175
20
-3.025
40
0.5
50
90
51
180
0
ARC
8
0
10
73.175
20
-3.025
40
0.5
50
0
51
90
0
ARC
8
0
10
60.175
20
-16.025
40
0.5
50
180
51
270
0
ARC
8
0
10
73.175
20
-16.025
40
0.5
50
270
51
0
0
LINE
8
0
10
79.225
20
-2.525
11
92.225
21
-2.525
0
LINE
8
0
10
79.225
20
-16.525
11
92.225
21
-16.525
0
LINE
8
0
10
78.725
20
-3.025
11
78.725
21
-16.025
0
LINE
8
0
10
92.725
20
-3.025
11
92.725
21
-16.025
0
ARC
8
0
10
79.225
20
-3.025
40
0.5
50
90
51
180
0
ARC
8
0
10
92.225
20
-3.025
40
0.5
50
0
51
90
0
ARC
8
0
10
79.225
20
-16.025
40
0.5
50
180
51
270
0
ARC
8
0
10
92.225
20
-16.025
40
0.5
50
270
51
0
0
LINE
8
0
10
98.275
20
-2.525
11
111.275
21
-2.525
0
LINE
8
0
10
98.275
20
-16.525
11
111.275
21
-16.525
0
LINE
8
0
10
97.775
20
-3.025
11
97.775
21
-16.025
0
LINE
8
0
10
111.775
20
-3.025
11
111.775
21
-16.025
0
ARC
8
0
10
98.275
20
-3.025
40
0.5
50
90
51
180
0
ARC
8
0
10
111.275
20
-3.025
40
0.5
50
0
51
90
0
ARC
8
0
10
98.275
20
-16.025
40
0.5
50
180
51
270
0
ARC
8
0
10
111.275
20
-16.025
40
0.5
50
270
51
0
0
LINE
8
0
10
117.325
20
-2.525
11
130.325
21
-2.525
0
LINE
8
0
10
117.325
20
-16.525
11
130.325
21
-16.525
0
LINE
8
0
10
116.825
20
-3.025
11
116.825
21
-16.025
0
LINE
8
0
10
130.825
20
-3.025
11
130.825
21
-16.025
0
ARC
8
0
10
117.325
20
-3.025
40
0.5
50
90
51
180
0
ARC
8
0
10
130.325
20
-3.025
40
0.5
50
0
51
90
0
ARC
8
0
10
117.325
20
-16.025
40
0.5
50
180
51
270
0
ARC
8
0
10
130.325
20
-16.025
40
0.5
50
270
51
0
0
LINE
8
0
10
136.375
20
-2.525
11
149.375
21
-2.525
0
LINE
8
0
10
136.375
20
-16.525
11
149.375
21
-16.525
0
LINE
8
0
10
135.875
20
-3.025
11
135.875
21
-16.025
0
LINE
8
0
10
149.875
20
-3.025
11
149.875
21
-16.025
0
ARC
8
0
10
136.375
20
-3.025
40
0.5
50
90
51
180
0
ARC
8
0
10
149.375
20
-3.025
40
0.5
50
0
51
90
0
ARC
8
0
10
136.375
20
-16.025
40
0.5
50
180
51
270
0
ARC
8
0
10
149.375
20
-16.025
40
0.5
50
270
51
0
0
LINE
8
0
10
155.425
20
-2.525
11
168.425
21
-2.525
0
LINE
8
0
10
155.425
20
-16.525
11
168.425
21
-16.525
0
LINE
8
0
10
154.925
20
-3.025
11
154.925
21
-16.025
0
LINE
8
0
10
168.925
20
-3.025
11
168.925
21
-16.025
0
ARC
8
0
10
155.425
20
-3.025
40
0.5
50
90
51
180
0
ARC
8
0
10
168.425
20
-3.025
40
0.5
50
0
51
90
0
ARC
8
0
10
155.425
20
-16.025
40
0.5
50
180
51
270
0
ARC
8
0
10
168.425
20
-16.025
40
0.5
50
270
51
0
0
LINE
8
0
10
181.61875
20
-2.525
11
194.61875
21
-2.525
0
LINE
8
0
10
181.61875
20
-16.525
11
194.61875
21
-16.525
0
LINE
8
0
10
181.11875
20
-3.025
11
181.11875
21
-16.025
0
LINE
8
0
10
195.11875
20
-3.025
11
195.11875
21
-16.025
0
ARC
8
0
10
181.61875
20
-3.025
40
0.5
50
90
51
180
0
ARC
8
0
10
194.61875
20
-3.025
40
0.5
50
0
51
90
0
ARC
8
0
10
181.61875
20
-16.025
40
0.5
50
180
51
270
0
ARC
8
0
10
194.61875
20
-16.025
40
0.5
50
270
51
0
0
LINE
8
0
10
7.7875
20
-21.575
11
20.7875
21
-21.575
0
LINE
8
0
10
7.7875
20
-35.575
11
20.7875
21
-35.575
0
LINE
8
0
10
7.2875
20
-22.075
11
7.2875
21
-35.075
0
LINE
8
0
10
21.2875
20
-22.075
11
21.2875
21
-35.075
0
ARC
8
0
10
7.7875
20
-22.075
40
0.5
50
90
51
180
0
ARC
8
0
10
20.7875
20
-22.075
40
0.5
50
0
51
90
0
ARC
8
0
10
7.7875
20
-35.075
40
0.5
50
180
51
270
0
ARC
8
0
10
20.7875
20
-35.075
40
0.5
50
270
51
0
0
LINE
8
0
10
26.8375
20
-21.575
11
39.8375
21
-21.575
0
LINE
8
0
10
26.8375
20
-35.575
11
39.8375
21
-35.575
0
LINE
8
0
10
26.3375
20
-22.075
11
26.3375
21
-35.075
0
LINE
8
0
10
40.3375
20
-22.075
11
40.3375
21
-35.075
0
ARC
8
0
10
26.8375
20
-22.075
40
0.5
50
90
51
180
0
ARC
8
0
10
39.8375
20
-22.075
40
0.5
50
0
51
90
0
ARC
8
0
10
26.8375
20
-35.075
40
0.5
50
180
51
270
0
ARC
8
0
10
39.8375
20
-35.075
40
0.5
50
270
51
0
0
LINE
8
0
10
45.8875
20
-21.575
11
58.8875
21
-21.575
0
LINE
8
0
10
45.8875
20
-35.575
11
58.8875
21
-35.575
0
LINE
8
0
10
45.3875
20
-22.075
11
45.3875
21
-35.075
0
LINE
8
0
10
59.3875
20
-22.075
11
59.3875
21
-35.075
0
ARC
8
0
10
45.8875
20
-22.075
40
0.5
50
90
51
180
0
ARC
8
0
10
58.8875
20
-22.075
40
0.5
50
0
51
90
0
ARC
8
0
10
45.8875
20
-35.075
40
0.5
50
180
51
270
0
ARC
8
0
10
58.8875
20
-35.075
40
0.5
50
270
51
0
0
LINE
8
0
10
64.9375
20
-21.575
11
77.9375
21
-21.575
0
LINE
8
0
10
64.9375
20
-35.575
11
77.9375
21
-35.575
0
LINE
8
0
10
64.4375
20
-22.075
11
64.4375
21
-35.075
0
LINE
8
0
10
78.4375
20
-22.075
11
78.4375
21
-35.075
0
ARC
8
0
10
64.9375
20
-22.075
40
0.5
50
90
51
180
0
ARC
8
0
10
77.9375
20
-22.075
40
0.5
50
0
51
90
0
ARC
8
0
10
64.9375
20
-35.075
40
0.5
50
180
51
270
0
ARC
8
0
10
77.9375
20
-35.075
40
0.5
50
270
51
0
0
LINE
8
0
10
83.9875
20
-21.575
11
96.9875
21
-21.575
0
LINE
8
0
10
83.9875
20
-35.575
11
96.9875
21
-35.575
0
LINE
8
0
10
83.4875
20
-22.075
11
83.4875
21
-35.075
0
LINE
8
0
10
97.4875
20
-22.075
11
97.4875
21
-35.075
0
ARC
8
0
10
83.9875
20
-22.075
40
0.5
50
90
51
180
0
ARC
8
0
10
96.9875
20
-22.075
40
0.5
50
0
51
90
0
ARC
8
0
10
83.9875
20
-35.075
40
0.5
50
180
51
270
0
ARC
8
0
10
96.9875
20
-35.075
40
0.5
50
270
51
0
0
LINE
8
0
10
103.0375
20
-21.575
11
116.0375
21
-21.575
0
LINE
8
0
10
103.0375
20
-35.575
11
116.0375
21
-35.575
0
LINE
8
0
10
102.5375
20
-22.075
11
102.5375
21
-35.075
0
LINE
8
0
10
116.5375
20
-22.075
11
116.5375
21
-35.075
0
ARC
8
0
10
103.0375
20
-22.075
40
0.5
50
90
51
180
0
ARC
8
0
10
116.0375
20
-22.075
40
0.5
50
0
51
90
0
ARC
8
0
10
103.0375
20
-35.075
40
0.5
50
180
51
270
0
ARC
8
0
10
116.0375
20
-35.075
40
0.5
50
270
51
0
0
LINE
8
0
10
122.0875
20
-21.575
11
135.0875
21
-21.575
0
LINE
8
0
10
122.0875
20
-35.575
11
135.0875
21
-35.575
0
LINE
8
0
10
121.5875
20
-22.075
11
121.5875
21
-35.075
0
LINE
8
0
10
135.5875
20
-22.075
11
135.5875
21
-35.075
0
ARC
8
0
10
122.0875
20
-22.075
40
0.5
50
90
51
180
0
ARC
8
0
10
135.0875
20
-22.075
40
0.5
50
0
51
90
0
ARC
8
0
10
122.0875
20
-35.075
40
0.5
50
180
51
270
0
ARC
8
0
10
135.0875
20
-35.075
40
0.5
50
270
51
0
0
LINE
8
0
10
141.1375
20
-21.575
11
154.1375
21
-21.575
0
LINE
8
0
10
141.1375
20
-35.575
11
154.1375
21
-35.575
0
LINE
8
0
10
140.6375
20
-22.075
11
140.6375
21
-35.075
0
LINE
8
0
10
154.6375
20
-22.075
11
154.6375
21
-35.075
0
ARC
8
0
10
141.1375
20
-22.075
40
0.5
50
90
51
180
0
ARC
8
0
10
154.1375
20
-22.075
40
0.5
50
0
51
90
0
ARC
8
0
10
141.1375
20
-35.075
40
0.5
50
180
51
270
0
ARC
8
0
10
154.1375
20
-35.075
40
0.5
50
270
51
0
0
LINE
8
0
10
160.1875
20
-21.575
11
173.1875
21
-21.575
0
LINE
8
0
10
160.1875
20
-35.575
11
173.1875
21
-35.575
0
LINE
8
0
10
159.6875
20
-22.075
11
159.6875
21
-35.075
0
LINE
8
0
10
173.6875
20
-22.075
11
173.6875
21
-35.075
0
ARC
8
0
10
160.1875
20
-22.075
40
0.5
50
90
51
180
0
ARC
8
0
10
173.1875
20
-22.075
40
0.5
50
0
51
90
0
ARC
8
0
10
160.1875
20
-35.075
40
0.5
50
180
51
270
0
ARC
8
0
10
173.1875
20
-35.075
40
0.5
50
270
51
0
0
LINE
8
0
10
184
20
-21.575
11
197
21
-21.575
0
LINE
8
0
10
184
20
-35.575
11
197
21
-35.575
0
LINE
8
0
10
183.5
20
-22.075
11
183.5
21
-35.075
0
LINE
8
0
10
197.5
20
-22.075
11
197.5
21
-35.075
0
ARC
8
0
10
184
20
-22.075
40
0.5
50
90
51
180
0
ARC
8
0
10
197
20
-22.075
40
0.5
50
0
51
90
0
ARC
8
0
10
184
20
-35.075
40
0.5
50
180
51
270
0
ARC
8
0
10
197
20
-35.075
40
0.5
50
270
51
0
0
LINE
8
0
10
5.40625
20
-40.625
11
18.40625
21
-40.625
0
LINE
8
0
10
5.40625
20
-54.625
11
18.40625
21
-54.625
0
LINE
8
0
10
4.90625
20
-41.125
11
4.90625
21
-54.125
0
LINE
8
0
10
18.90625
20
-41.125
11
18.90625
21
-54.125
0
ARC
8
0
10
5.40625
20
-41.125
40
0.5
50
90
51
180
0
ARC
8
0
10
18.40625
20
-41.125
40
0.5
50
0
51
90
0
ARC
8
0
10
5.40625
20
-54.125
40
0.5
50
180
51
270
0
ARC
8
0
10
18.40625
20
-54.125
40
0.5
50
270
51
0
0
LINE
8
0
10
26.8375
20
-40.625
11
39.8375
21
-40.625
0
LINE
8
0
10
26.8375
20
-54.625
11
39.8375
21
-54.625
0
LINE
8
0
10
26.3375
20
-41.125
11
26.3375
21
-54.125
0
LINE
8
0
10
40.3375
20
-41.125
11
40.3375
21
-54.125
0
ARC
8
0
10
26.8375
20
-41.125
40
0.5
50
90
51
180
0
ARC
8
0
10
39.8375
20
-41.125
40
0.5
50
0
51
90
0
ARC
8
0
10
26.8375
20
-54.125
40
0.5
50
180
51
270
0
ARC
8
0
10
39.8375
20
-54.125
40
0.5
50
270
51
0
0
LINE
8
0
10
45.8875
20
-40.625
11
58.8875
21
-40.625
0
LINE
8
0
10
45.8875
20
-54.625
11
58.8875
21
-54.625
0
LINE
8
0
10
45.3875
20
-41.125
11
45.3875
21
-54.125
0
LINE
8
0
10
59.3875
20
-41.125
11
59.3875
21
-54.125
0
ARC
8
0
10
45.8875
20
-41.125
40
0.5
50
90
51
180
0
ARC
8
0
10
58.8875
20
-41.125
40
0.5
50
0
51
90
0
ARC
8
0
10
45.8875
20
-54.125
40
0.5
50
180
51
270
0
ARC
8
0
10
58.8875
20
-54.125
40
0.5
50
270
51
0
0
LINE
8
0
10
64.9375
20
-40.625
11
77.9375
21
-40.625
0
LINE
8
0
10
64.9375
20
-54.625
11
77.9375
21
-54.625
0
LINE
8
0
10
64.4375
20
-41.125
11
64.4375
21
-54.125
0
LINE
8
0
10
78.4375
20
-41.125
11
78.4375
21
-54.125
0
ARC
8
0
10
64.9375
20
-41.125
40
0.5
50
90
51
180
0
ARC
8
0
10
77.9375
20
-41.125
40
0.5
50
0
51
90
0
ARC
8
0
10
64.9375
20
-54.125
40
0.5
50
180
51
270
0
ARC
8
0
10
77.9375
20
-54.125
40
0.5
50
270
51
0
0
LINE
8
0
10
83.9875
20
-40.625
11
96.9875
21
-40.625
0
LINE
8
0
10
83.9875
20
-54.625
11
96.9875
21
-54.625
0
LINE
8
0
10
83.4875
20
-41.125
11
83.4875
21
-54.125
0
LINE
8
0
10
97.4875
20
-41.125
11
97.4875
21
-54.125
0
ARC
8
0
10
83.9875
20
-41.125
40
0.5
50
90
51
180
0
ARC
8
0
10
96.9875
20
-41.125
40
0.5
50
0
51
90
0
ARC
8
0
10
83.9875
20
-54.125
40
0.5
50
180
51
270
0
ARC
8
0
10
96.9875
20
-54.125
40
0.5
50
270
51
0
0
LINE
8
0
10
103.0375
20
-40.625
11
116.0375
21
-40.625
0
LINE
8
0
10
103.0375
20
-54.625
11
116.0375
21
-54.625
0
LINE
8
0
10
102.5375
20
-41.125
11
102.5375
21
-54.125
0
LINE
8
0
10
116.5375
20
-41.125
11
116.5375
21
-54.125
0
ARC
8
0
10
103.0375
20
-41.125
40
0.5
50
90
51
180
0
ARC
8
0
10
116.0375
20
-41.125
40
0.5
50
0
51
90
0
ARC
8
0
10
103.0375
20
-54.125
40
0.5
50
180
51
270
0
ARC
8
0
10
116.0375
20
-54.125
40
0.5
50
270
51
0
0
LINE
8
0
10
122.0875
20
-40.625
11
135.0875
21
-40.625
0
LINE
8
0
10
122.0875
20
-54.625
11
135.0875
21
-54.625
0
LINE
8
0
10
121.5875
20
-41.125
11
121.5875
21
-54.125
0
LINE
8
0
10
135.5875
20
-41.125
11
135.5875
21
-54.125
0
ARC
8
0
10
122.0875
20
-41.125
40
0.5
50
90
51
180
0
ARC
8
0
10
135.0875
20
-41.125
40
0.5
50
0
51
90
0
ARC
8
0
10
122.0875
20
-54.125
40
0.5
50
180
51
270
0
ARC
8
0
10
135.0875
20
-54.125
40
0.5
50
270
51
0
0
LINE
8
0
10
141.1375
20
-40.625
11
154.1375
21
-40.625
0
LINE
8
0
10
141.1375
20
-54.625
11
154.1375
21
-54.625
0
LINE
8
0
10
140.6375
20
-41.125
11
140.6375
21
-54.125
0
LINE
8
0
10
154.6375
20
-41.125
11
154.6375
21
-54.125
0
ARC
8
0
10
141.1375
20
-41.125
40
0.5
50
90
51
180
0
ARC
8
0
10
154.1375
20
-41.125
40
0.5
50
0
51
90
0
ARC
8
0
10
141.1375
20
-54.125
40
0.5
50
180
51
270
0
ARC
8
0
10
154.1375
20
-54.125
40
0.5
50
270
51
0
0
LINE
8
0
10
160.1875
20
-40.625
11
173.1875
21
-40.625
0
LINE
8
0
10
160.1875
20
-54.625
11
173.1875
21
-54.625
0
LINE
8
0
10
159.6875
20
-41.125
11
159.6875
21
-54.125
0
LINE
8
0
10
173.6875
20
-41.125
11
173.6875
21
-54.125
0
ARC
8
0
10
160.1875
20
-41.125
40
0.5
50
90
51
180
0
ARC
8
0
10
173.1875
20
-41.125
40
0.5
50
0
51
90
0
ARC
8
0
10
160.1875
20
-54.125
40
0.5
50
180
51
270
0
ARC
8
0
10
173.1875
20
-54.125
40
0.5
50
270
51
0
0
LINE
8
0
10
199.88125
20
-50.65
11
199.88125
21
-63.65
0
LINE
8
0
10
185.88125
20
-50.65
11
185.88125
21
-63.65
0
LINE
8
0
10
199.38125
20
-50.15
11
186.38125
21
-50.15
0
LINE
8
0
10
199.38125
20
-64.15
11
186.38125
21
-64.15
0
ARC
8
0
10
199.38125
20
-50.65
40
0.5
50
0
51
90
0
ARC
8
0
10
199.38125
20
-63.65
40
0.5
50
270
51
0
0
ARC
8
0
10
186.38125
20
-50.65
40
0.5
50
90
51
180
0
ARC
8
0
10
186.38125
20
-63.65
40
0.5
50
180
51
270
0
LINE
8
0
10
198.88125
20
-42.212
11
198.88125
21
-48.212
0
LINE
8
0
10
183.88125
20
-42.212
11
183.88125
21
-48.212
0
LINE
8
0
10
198.38125
20
-41.712
11
184.38125
21
-41.712
0
LINE
8
0
10
198.38125
20
-48.712
11
184.38125
21
-48.712
0
ARC
8
0
10
198.38125
20
-42.212
40
0.5
50
0
51
90
0
ARC
8
0
10
198.38125
20
-48.212
40
0.5
50
270
51
0
0
ARC
8
0
10
184.38125
20
-42.212
40
0.5
50
90
51
180
0
ARC
8
0
10
184.38125
20
-48.212
40
0.5
50
180
51
270
0
LINE
8
0
10
198.88125
20
-66.088
11
198.88125
21
-72.088
0
LINE
8
0
10
183.88125
20
-66.088
11
183.88125
21
-72.088
0
LINE
8
0
10
198.38125
20
-65.588
11
184.38125
21
-65.588
0
LINE
8
0
10
198.38125
20
-72.588
11
184.38125
21
-72.588
0
ARC
8
0
10
198.38125
20
-66.088
40
0.5
50
0
51
90
0
ARC
8
0
10
198.38125
20
-72.088
40
0.5
50
270
51
0
0
ARC
8
0
10
184.38125
20
-66.088
40
0.5
50
90
51
180
0
ARC
8
0
10
184.38125
20
-72.088
40
0.5
50
180
51
270
0
LINE
8
0
10
5.40625
20
-59.675
11
18.40625
21
-59.675
0
LINE
8
0
10
5.40625
20
-73.675
11
18.40625
21
-73.675
0
LINE
8
0
10
4.90625
20
-60.175
11
4.90625
21
-73.175
0
LINE
8
0
10
18.90625
20
-60.175
11
18.90625
21
-73.175
0
ARC
8
0
10
5.40625
20
-60.175
40
0.5
50
90
51
180
0
ARC
8
0
10
18.40625
20
-60.175
40
0.5
50
0
51
90
0
ARC
8
0
10
5.40625
20
-73.175
40
0.5
50
180
51
270
0
ARC
8
0
10
18.40625
20
-73.175
40
0.5
50
270
51
0
0
LINE
8
0
10
29.21875
20
-59.675
11
42.21875
21
-59.675
0
LINE
8
0
10
29.21875
20
-73.675
11
42.21875
21
-73.675
0
LINE
8
0
10
28.71875
20
-60.175
11
28.71875
21
-73.175
0
LINE
8
0
10
42.71875
20
-60.175
11
42.71875
21
-73.175
0
ARC
8
0
10
29.21875
20
-60.175
40
0.5
50
90
51
180
0
ARC
8
0
10
42.21875
20
-60.175
40
0.5
50
0
51
90
0
ARC
8
0
10
29.21875
20
-73.175
40
0.5
50
180
51
270
0
ARC
8
0
10
42.21875
20
-73.175
40
0.5
50
270
51
0
0
LINE
8
0
10
67.31875
20
-59.675
11
80.31875
21
-59.675
0
LINE
8
0
10
67.31875
20
-73.675
11
80.31875
21
-73.675
0
LINE
8
0
10
66.81875
20
-60.175
11
66.81875
21
-73.175
0
LINE
8
0
10
80.81875
20
-60.175
11
80.81875
21
-73.175
0
ARC
8
0
10
67.31875
20
-60.175
40
0.5
50
90
51
180
0
ARC
8
0
10
80.31875
20
-60.175
40
0.5
50
0
51
90
0
ARC
8
0
10
67.31875
20
-73.175
40
0.5
50
180
51
270
0
ARC
8
0
10
80.31875
20
-73.175
40
0.5
50
270
51
0
0
LINE
8
0
10
58.88075
20
-60.675
11
64.88075
21
-60.675
0
LINE
8
0
10
58.88075
20
-75.675
11
64.88075
21
-75.675
0
LINE
8
0
10
58.38075
20
-61.175
11
58.38075
21
-75.175
0
LINE
8
0
10
65.38075
20
-61.175
11
65.38075
21
-75.175
0
ARC
8
0
10
58.88075
20
-61.175
40
0.5
50
90
51
180
0
ARC
8
0
10
64.88075
20
-61.175
40
0.5
50
0
51
90
0
ARC
8
0
10
58.88075
20
-75.175
40
0.5
50
180
51
270
0
ARC
8
0
10
64.88075
20
-75.175
40
0.5
50
270
51
0
0
LINE
8
0
10
82.75675
20
-60.675
11
88.75675
21
-60.675
0
LINE
8
0
10
82.75675
20
-75.675
11
88.75675
21
-75.675
0
LINE
8
0
10
82.25675
20
-61.175
11
82.25675
21
-75.175
0
LINE
8
0
10
89.25675
20
-61.175
11
89.25675
21
-75.175
0
ARC
8
0
10
82.75675
20
-61.175
40
0.5
50
90
51
180
0
ARC
8
0
10
88.75675
20
-61.175
40
0.5
50
0
51
90
0
ARC
8
0
10
82.75675
20
-75.175
40
0.5
50
180
51
270
0
ARC
8
0
10
88.75675
20
-75.175
40
0.5
50
270
51
0
0
LINE
8
0
10
110.18125
20
-59.675
11
123.18125
21
-59.675
0
LINE
8
0
10
110.18125
20
-73.675
11
123.18125
21
-73.675
0
LINE
8
0
10
109.68125
20
-60.175
11
109.68125
21
-73.175
0
LINE
8
0
10
123.68125
20
-60.175
11
123.68125
21
-73.175
0
ARC
8
0
10
110.18125
20
-60.175
40
0.5
50
90
51
180
0
ARC
8
0
10
123.18125
20
-60.175
40
0.5
50
0
51
90
0
ARC
8
0
10
110.18125
20
-73.175
40
0.5
50
180
51
270
0
ARC
8
0
10
123.18125
20
-73.175
40
0.5
50
270
51
0
0
LINE
8
0
10
138.75625
20
-59.675
11
151.75625
21
-59.675
0
LINE
8
0
10
138.75625
20
-73.675
11
151.75625
21
-73.675
0
LINE
8
0
10
138.25625
20
-60.175
11
138.25625
21
-73.175
0
LINE
8
0
10
152.25625
20
-60.175
11
152.25625
21
-73.175
0
ARC
8
0
10
138.75625
20
-60.175
40
0.5
50
90
51
180
0
ARC
8
0
10
151.75625
20
-60.175
40
0.5
50
0
51
90
0
ARC
8
0
10
138.75625
20
-73.175
40
0.5
50
180
51
270
0
ARC
8
0
10
151.75625
20
-73.175
40
0.5
50
270
51
0
0
LINE
8
0
10
0
20
-76.2
11
204.7875
21
-76.2
0
LINE
8
0
10
0
20
0
11
204.7875
21
0
0
LINE
8
0
10
0
20
-76.2
11
0
21
0
0
LINE
8
0
10
204.7875
20
-76.2
11
204.7875
21
0
0
ENDSEC
0
EOF