0
SECTION
2
HEADER
9
$INSUNITS
70
4
0
ENDSEC
0
SECTION
2
TABLES
0
TABLE
2
LTYPE
0
LTYPE
72
65
70
64
2
CONTINUOUS
3
______
73
0
40
0
0
ENDTAB
0
TABLE
2
LAYER
0
ENDTAB
0
ENDSEC
0
SECTION
2
ENTITIES
0
LINE
8
0
10
3.225
20
-2.725
11
15.825
21
-2.725
0
LINE
8
0
10
3.225
20
-16.325
11
15.825
21
-16.325
0
LINE
8
0
10
2.725
20
-3.225
11
2.725
21
-15.825
0
LINE
8
0
10
16.325
20
-3.225
11
16.325
21
-15.825
0
ARC
8
0
10
3.225
20
-3.225
40
0.5
50
90
51
180
0
ARC
8
0
10
15.825
20
-3.225
40
0.5
50
0
51
90
0
ARC
8
0
10
3.225
20
-15.825
40
0.5
50
180
51
270
0
ARC
8
0
10
15.825
20
-15.825
40
0.5
50
270
51
0
0
LINE
8
0
10
22.275
20
-2.725
11
34.875
21
-2.725
0
LINE
8
0
10
22.275
20
-16.325
11
34.875
21
-16.325
0
LINE
8
0
10
21.775
20
-3.225
11
21.775
21
-15.825
0
LINE
8
0
10
35.375
20
-3.225
11
35.375
21
-15.825
0
ARC
8
0
10
22.275
20
-3.225
40
0.5
50
90
51
180
0
ARC
8
0
10
34.875
20
-3.225
40
0.5
50
0
51
90
0
ARC
8
0
10
22.275
20
-15.825
40
0.5
50
180
51
270
0
ARC
8
0
10
34.875
20
-15.825
40
0.5
50
270
51
0
0
LINE
8
0
10
41.325
20
-2.725
11
53.925
21
-2.725
0
LINE
8
0
10
41.325
20
-16.325
11
53.925
21
-16.325
0
LINE
8
0
10
40.825
20
-3.225
11
40.825
21
-15.825
0
LINE
8
0
10
54.425
20
-3.225
11
54.425
21
-15.825
0
ARC
8
0
10
41.325
20
-3.225
40
0.5
50
90
51
180
0
ARC
8
0
10
53.925
20
-3.225
40
0.5
50
0
51
90
0
ARC
8
0
10
41.325
20
-15.825
40
0.5
50
180
51
270
0
ARC
8
0
10
53.925
20
-15.825
40
0.5
50
270
51
0
0
LINE
8
0
10
60.375
20
-2.725
11
72.975
21
-2.725
0
LINE
8
0
10
60.375
20
-16.325
11
72.975
21
-16.325
0
LINE
8
0
10
59.875
20
-3.225
11
59.875
21
-15.825
0
LINE
8
0
10
73.475
20
-3.225
11
73.475
21
-15.825
0
ARC
8
0
10
60.375
20
-3.225
40
0.5
50
90
51
180
0
ARC
8
0
10
72.975
20
-3.225
40
0.5
50
0
51
90
0
ARC
8
0
10
60.375
20
-15.825
40
0.5
50
180
51
270
0
ARC
8
0
10
72.975
20
-15.825
40
0.5
50
270
51
0
0
LINE
8
0
10
79.425
20
-2.725
11
92.025
21
-2.725
0
LINE
8
0
10
79.425
20
-16.325
11
92.025
21
-16.325
0
LINE
8
0
10
78.925
20
-3.225
11
78.925
21
-15.825
0
LINE
8
0
10
92.525
20
-3.225
11
92.525
21
-15.825
0
ARC
8
0
10
79.425
20
-3.225
40
0.5
50
90
51
180
0
ARC
8
0
10
92.025
20
-3.225
40
0.5
50
0
51
90
0
ARC
8
0
10
79.425
20
-15.825
40
0.5
50
180
51
270
0
ARC
8
0
10
92.025
20
-15.825
40
0.5
50
270
51
0
0
LINE
8
0
10
98.475
20
-2.725
11
111.075
21
-2.725
0
LINE
8
0
10
98.475
20
-16.325
11
111.075
21
-16.325
0
LINE
8
0
10
97.975
20
-3.225
11
97.975
21
-15.825
0
LINE
8
0
10
111.575
20
-3.225
11
111.575
21
-15.825
0
ARC
8
0
10
98.475
20
-3.225
40
0.5
50
90
51
180
0
ARC
8
0
10
111.075
20
-3.225
40
0.5
50
0
51
90
0
ARC
8
0
10
98.475
20
-15.825
40
0.5
50
180
51
270
0
ARC
8
0
10
111.075
20
-15.825
40
0.5
50
270
51
0
0
LINE
8
0
10
117.525
20
-2.725
11
130.125
21
-2.725
0
LINE
8
0
10
117.525
20
-16.325
11
130.125
21
-16.325
0
LINE
8
0
10
117.025
20
-3.225
11
117.025
21
-15.825
0
LINE
8
0
10
130.625
20
-3.225
11
130.625
21
-15.825
0
ARC
8
0
10
117.525
20
-3.225
40
0.5
50
90
51
180
0
ARC
8
0
10
130.125
20
-3.225
40
0.5
50
0
51
90
0
ARC
8
0
10
117.525
20
-15.825
40
0.5
50
180
51
270
0
ARC
8
0
10
130.125
20
-15.825
40
0.5
50
270
51
0
0
LINE
8
0
10
136.575
20
-2.725
11
149.175
21
-2.725
0
LINE
8
0
10
136.575
20
-16.325
11
149.175
21
-16.325
0
LINE
8
0
10
136.075
20
-3.225
11
136.075
21
-15.825
0
LINE
8
0
10
149.675
20
-3.225
11
149.675
21
-15.825
0
ARC
8
0
10
136.575
20
-3.225
40
0.5
50
90
51
180
0
ARC
8
0
10
149.175
20
-3.225
40
0.5
50
0
51
90
0
ARC
8
0
10
136.575
20
-15.825
40
0.5
50
180
51
270
0
ARC
8
0
10
149.175
20
-15.825
40
0.5
50
270
51
0
0
LINE
8
0
10
155.625
20
-2.725
11
168.225
21
-2.725
0
LINE
8
0
10
155.625
20
-16.325
11
168.225
21
-16.325
0
LINE
8
0
10
155.125
20
-3.225
11
155.125
21
-15.825
0
LINE
8
0
10
168.725
20
-3.225
11
168.725
21
-15.825
0
ARC
8
0
10
155.625
20
-3.225
40
0.5
50
90
51
180
0
ARC
8
0
10
168.225
20
-3.225
40
0.5
50
0
51
90
0
ARC
8
0
10
155.625
20
-15.825
40
0.5
50
180
51
270
0
ARC
8
0
10
168.225
20
-15.825
40
0.5
50
270
51
0
0
LINE
8
0
10
179.4375
20
-2.725
11
192.0375
21
-2.725
0
LINE
8
0
10
179.4375
20
-16.325
11
192.0375
21
-16.325
0
LINE
8
0
10
178.9375
20
-3.225
11
178.9375
21
-15.825
0
LINE
8
0
10
192.5375
20
-3.225
11
192.5375
21
-15.825
0
ARC
8
0
10
179.4375
20
-3.225
40
0.5
50
90
51
180
0
ARC
8
0
10
192.0375
20
-3.225
40
0.5
50
0
51
90
0
ARC
8
0
10
179.4375
20
-15.825
40
0.5
50
180
51
270
0
ARC
8
0
10
192.0375
20
-15.825
40
0.5
50
270
51
0
0
LINE
8
0
10
3.225
20
-21.775
11
15.825
21
-21.775
0
LINE
8
0
10
3.225
20
-35.375
11
15.825
21
-35.375
0
LINE
8
0
10
2.725
20
-22.275
11
2.725
21
-34.875
0
LINE
8
0
10
16.325
20
-22.275
11
16.325
21
-34.875
0
ARC
8
0
10
3.225
20
-22.275
40
0.5
50
90
51
180
0
ARC
8
0
10
15.825
20
-22.275
40
0.5
50
0
51
90
0
ARC
8
0
10
3.225
20
-34.875
40
0.5
50
180
51
270
0
ARC
8
0
10
15.825
20
-34.875
40
0.5
50
270
51
0
0
LINE
8
0
10
22.275
20
-21.775
11
34.875
21
-21.775
0
LINE
8
0
10
22.275
20
-35.375
11
34.875
21
-35.375
0
LINE
8
0
10
21.775
20
-22.275
11
21.775
21
-34.875
0
LINE
8
0
10
35.375
20
-22.275
11
35.375
21
-34.875
0
ARC
8
0
10
22.275
20
-22.275
40
0.5
50
90
51
180
0
ARC
8
0
10
34.875
20
-22.275
40
0.5
50
0
51
90
0
ARC
8
0
10
22.275
20
-34.875
40
0.5
50
180
51
270
0
ARC
8
0
10
34.875
20
-34.875
40
0.5
50
270
51
0
0
LINE
8
0
10
41.325
20
-21.775
11
53.925
21
-21.775
0
LINE
8
0
10
41.325
20
-35.375
11
53.925
21
-35.375
0
LINE
8
0
10
40.825
20
-22.275
11
40.825
21
-34.875
0
LINE
8
0
10
54.425
20
-22.275
11
54.425
21
-34.875
0
ARC
8
0
10
41.325
20
-22.275
40
0.5
50
90
51
180
0
ARC
8
0
10
53.925
20
-22.275
40
0.5
50
0
51
90
0
ARC
8
0
10
41.325
20
-34.875
40
0.5
50
180
51
270
0
ARC
8
0
10
53.925
20
-34.875
40
0.5
50
270
51
0
0
LINE
8
0
10
60.375
20
-21.775
11
72.975
21
-21.775
0
LINE
8
0
10
60.375
20
-35.375
11
72.975
21
-35.375
0
LINE
8
0
10
59.875
20
-22.275
11
59.875
21
-34.875
0
LINE
8
0
10
73.475
20
-22.275
11
73.475
21
-34.875
0
ARC
8
0
10
60.375
20
-22.275
40
0.5
50
90
51
180
0
ARC
8
0
10
72.975
20
-22.275
40
0.5
50
0
51
90
0
ARC
8
0
10
60.375
20
-34.875
40
0.5
50
180
51
270
0
ARC
8
0
10
72.975
20
-34.875
40
0.5
50
270
51
0
0
LINE
8
0
10
79.425
20
-21.775
11
92.025
21
-21.775
0
LINE
8
0
10
79.425
20
-35.375
11
92.025
21
-35.375
0
LINE
8
0
10
78.925
20
-22.275
11
78.925
21
-34.875
0
LINE
8
0
10
92.525
20
-22.275
11
92.525
21
-34.875
0
ARC
8
0
10
79.425
20
-22.275
40
0.5
50
90
51
180
0
ARC
8
0
10
92.025
20
-22.275
40
0.5
50
0
51
90
0
ARC
8
0
10
79.425
20
-34.875
40
0.5
50
180
51
270
0
ARC
8
0
10
92.025
20
-34.875
40
0.5
50
270
51
0
0
LINE
8
0
10
98.475
20
-21.775
11
111.075
21
-21.775
0
LINE
8
0
10
98.475
20
-35.375
11
111.075
21
-35.375
0
LINE
8
0
10
97.975
20
-22.275
11
97.975
21
-34.875
0
LINE
8
0
10
111.575
20
-22.275
11
111.575
21
-34.875
0
ARC
8
0
10
98.475
20
-22.275
40
0.5
50
90
51
180
0
ARC
8
0
10
111.075
20
-22.275
40
0.5
50
0
51
90
0
ARC
8
0
10
98.475
20
-34.875
40
0.5
50
180
51
270
0
ARC
8
0
10
111.075
20
-34.875
40
0.5
50
270
51
0
0
LINE
8
0
10
117.525
20
-21.775
11
130.125
21
-21.775
0
LINE
8
0
10
117.525
20
-35.375
11
130.125
21
-35.375
0
LINE
8
0
10
117.025
20
-22.275
11
117.025
21
-34.875
0
LINE
8
0
10
130.625
20
-22.275
11
130.625
21
-34.875
0
ARC
8
0
10
117.525
20
-22.275
40
0.5
50
90
51
180
0
ARC
8
0
10
130.125
20
-22.275
40
0.5
50
0
51
90
0
ARC
8
0
10
117.525
20
-34.875
40
0.5
50
180
51
270
0
ARC
8
0
10
130.125
20
-34.875
40
0.5
50
270
51
0
0
LINE
8
0
10
136.575
20
-21.775
11
149.175
21
-21.775
0
LINE
8
0
10
136.575
20
-35.375
11
149.175
21
-35.375
0
LINE
8
0
10
136.075
20
-22.275
11
136.075
21
-34.875
0
LINE
8
0
10
149.675
20
-22.275
11
149.675
21
-34.875
0
ARC
8
0
10
136.575
20
-22.275
40
0.5
50
90
51
180
0
ARC
8
0
10
149.175
20
-22.275
40
0.5
50
0
51
90
0
ARC
8
0
10
136.575
20
-34.875
40
0.5
50
180
51
270
0
ARC
8
0
10
149.175
20
-34.875
40
0.5
50
270
51
0
0
LINE
8
0
10
155.625
20
-21.775
11
168.225
21
-21.775
0
LINE
8
0
10
155.625
20
-35.375
11
168.225
21
-35.375
0
LINE
8
0
10
155.125
20
-22.275
11
155.125
21
-34.875
0
LINE
8
0
10
168.725
20
-22.275
11
168.725
21
-34.875
0
ARC
8
0
10
155.625
20
-22.275
40
0.5
50
90
51
180
0
ARC
8
0
10
168.225
20
-22.275
40
0.5
50
0
51
90
0
ARC
8
0
10
155.625
20
-34.875
40
0.5
50
180
51
270
0
ARC
8
0
10
168.225
20
-34.875
40
0.5
50
270
51
0
0
LINE
8
0
10
179.4375
20
-21.775
11
192.0375
21
-21.775
0
LINE
8
0
10
179.4375
20
-35.375
11
192.0375
21
-35.375
0
LINE
8
0
10
178.9375
20
-22.275
11
178.9375
21
-34.875
0
LINE
8
0
10
192.5375
20
-22.275
11
192.5375
21
-34.875
0
ARC
8
0
10
179.4375
20
-22.275
40
0.5
50
90
51
180
0
ARC
8
0
10
192.0375
20
-22.275
40
0.5
50
0
51
90
0
ARC
8
0
10
179.4375
20
-34.875
40
0.5
50
180
51
270
0
ARC
8
0
10
192.0375
20
-34.875
40
0.5
50
270
51
0
0
LINE
8
0
10
3.225
20
-40.825
11
15.825
21
-40.825
0
LINE
8
0
10
3.225
20
-54.425
11
15.825
21
-54.425
0
LINE
8
0
10
2.725
20
-41.325
11
2.725
21
-53.925
0
LINE
8
0
10
16.325
20
-41.325
11
16.325
21
-53.925
0
ARC
8
0
10
3.225
20
-41.325
40
0.5
50
90
51
180
0
ARC
8
0
10
15.825
20
-41.325
40
0.5
50
0
51
90
0
ARC
8
0
10
3.225
20
-53.925
40
0.5
50
180
51
270
0
ARC
8
0
10
15.825
20
-53.925
40
0.5
50
270
51
0
0
LINE
8
0
10
22.275
20
-40.825
11
34.875
21
-40.825
0
LINE
8
0
10
22.275
20
-54.425
11
34.875
21
-54.425
0
LINE
8
0
10
21.775
20
-41.325
11
21.775
21
-53.925
0
LINE
8
0
10
35.375
20
-41.325
11
35.375
21
-53.925
0
ARC
8
0
10
22.275
20
-41.325
40
0.5
50
90
51
180
0
ARC
8
0
10
34.875
20
-41.325
40
0.5
50
0
51
90
0
ARC
8
0
10
22.275
20
-53.925
40
0.5
50
180
51
270
0
ARC
8
0
10
34.875
20
-53.925
40
0.5
50
270
51
0
0
LINE
8
0
10
41.325
20
-40.825
11
53.925
21
-40.825
0
LINE
8
0
10
41.325
20
-54.425
11
53.925
21
-54.425
0
LINE
8
0
10
40.825
20
-41.325
11
40.825
21
-53.925
0
LINE
8
0
10
54.425
20
-41.325
11
54.425
21
-53.925
0
ARC
8
0
10
41.325
20
-41.325
40
0.5
50
90
51
180
0
ARC
8
0
10
53.925
20
-41.325
40
0.5
50
0
51
90
0
ARC
8
0
10
41.325
20
-53.925
40
0.5
50
180
51
270
0
ARC
8
0
10
53.925
20
-53.925
40
0.5
50
270
51
0
0
LINE
8
0
10
60.375
20
-40.825
11
72.975
21
-40.825
0
LINE
8
0
10
60.375
20
-54.425
11
72.975
21
-54.425
0
LINE
8
0
10
59.875
20
-41.325
11
59.875
21
-53.925
0
LINE
8
0
10
73.475
20
-41.325
11
73.475
21
-53.925
0
ARC
8
0
10
60.375
20
-41.325
40
0.5
50
90
51
180
0
ARC
8
0
10
72.975
20
-41.325
40
0.5
50
0
51
90
0
ARC
8
0
10
60.375
20
-53.925
40
0.5
50
180
51
270
0
ARC
8
0
10
72.975
20
-53.925
40
0.5
50
270
51
0
0
LINE
8
0
10
79.425
20
-40.825
11
92.025
21
-40.825
0
LINE
8
0
10
79.425
20
-54.425
11
92.025
21
-54.425
0
LINE
8
0
10
78.925
20
-41.325
11
78.925
21
-53.925
0
LINE
8
0
10
92.525
20
-41.325
11
92.525
21
-53.925
0
ARC
8
0
10
79.425
20
-41.325
40
0.5
50
90
51
180
0
ARC
8
0
10
92.025
20
-41.325
40
0.5
50
0
51
90
0
ARC
8
0
10
79.425
20
-53.925
40
0.5
50
180
51
270
0
ARC
8
0
10
92.025
20
-53.925
40
0.5
50
270
51
0
0
LINE
8
0
10
98.475
20
-40.825
11
111.075
21
-40.825
0
LINE
8
0
10
98.475
20
-54.425
11
111.075
21
-54.425
0
LINE
8
0
10
97.975
20
-41.325
11
97.975
21
-53.925
0
LINE
8
0
10
111.575
20
-41.325
11
111.575
21
-53.925
0
ARC
8
0
10
98.475
20
-41.325
40
0.5
50
90
51
180
0
ARC
8
0
10
111.075
20
-41.325
40
0.5
50
0
51
90
0
ARC
8
0
10
98.475
20
-53.925
40
0.5
50
180
51
270
0
ARC
8
0
10
111.075
20
-53.925
40
0.5
50
270
51
0
0
LINE
8
0
10
117.525
20
-40.825
11
130.125
21
-40.825
0
LINE
8
0
10
117.525
20
-54.425
11
130.125
21
-54.425
0
LINE
8
0
10
117.025
20
-41.325
11
117.025
21
-53.925
0
LINE
8
0
10
130.625
20
-41.325
11
130.625
21
-53.925
0
ARC
8
0
10
117.525
20
-41.325
40
0.5
50
90
51
180
0
ARC
8
0
10
130.125
20
-41.325
40
0.5
50
0
51
90
0
ARC
8
0
10
117.525
20
-53.925
40
0.5
50
180
51
270
0
ARC
8
0
10
130.125
20
-53.925
40
0.5
50
270
51
0
0
LINE
8
0
10
136.575
20
-40.825
11
149.175
21
-40.825
0
LINE
8
0
10
136.575
20
-54.425
11
149.175
21
-54.425
0
LINE
8
0
10
136.075
20
-41.325
11
136.075
21
-53.925
0
LINE
8
0
10
149.675
20
-41.325
11
149.675
21
-53.925
0
ARC
8
0
10
136.575
20
-41.325
40
0.5
50
90
51
180
0
ARC
8
0
10
149.175
20
-41.325
40
0.5
50
0
51
90
0
ARC
8
0
10
136.575
20
-53.925
40
0.5
50
180
51
270
0
ARC
8
0
10
149.175
20
-53.925
40
0.5
50
270
51
0
0
LINE
8
0
10
155.625
20
-40.825
11
168.225
21
-40.825
0
LINE
8
0
10
155.625
20
-54.425
11
168.225
21
-54.425
0
LINE
8
0
10
155.125
20
-41.325
11
155.125
21
-53.925
0
LINE
8
0
10
168.725
20
-41.325
11
168.725
21
-53.925
0
ARC
8
0
10
155.625
20
-41.325
40
0.5
50
90
51
180
0
ARC
8
0
10
168.225
20
-41.325
40
0.5
50
0
51
90
0
ARC
8
0
10
155.625
20
-53.925
40
0.5
50
180
51
270
0
ARC
8
0
10
168.225
20
-53.925
40
0.5
50
270
51
0
0
LINE
8
0
10
194.91875
20
-50.85
11
194.91875
21
-63.45
0
LINE
8
0
10
181.31875
20
-50.85
11
181.31875
21
-63.45
0
LINE
8
0
10
194.41875
20
-50.35
11
181.81875
21
-50.35
0
LINE
8
0
10
194.41875
20
-63.95
11
181.81875
21
-63.95
0
ARC
8
0
10
194.41875
20
-50.85
40
0.5
50
0
51
90
0
ARC
8
0
10
194.41875
20
-63.45
40
0.5
50
270
51
0
0
ARC
8
0
10
181.81875
20
-50.85
40
0.5
50
90
51
180
0
ARC
8
0
10
181.81875
20
-63.45
40
0.5
50
180
51
270
0
LINE
8
0
10
193.91875
20
-42.412
11
193.91875
21
-48.012
0
LINE
8
0
10
179.31875
20
-42.412
11
179.31875
21
-48.012
0
LINE
8
0
10
193.41875
20
-41.912
11
179.81875
21
-41.912
0
LINE
8
0
10
193.41875
20
-48.512
11
179.81875
21
-48.512
0
ARC
8
0
10
193.41875
20
-42.412
40
0.5
50
0
51
90
0
ARC
8
0
10
193.41875
20
-48.012
40
0.5
50
270
51
0
0
ARC
8
0
10
179.81875
20
-42.412
40
0.5
50
90
51
180
0
ARC
8
0
10
179.81875
20
-48.012
40
0.5
50
180
51
270
0
LINE
8
0
10
193.91875
20
-66.288
11
193.91875
21
-71.888
0
LINE
8
0
10
179.31875
20
-66.288
11
179.31875
21
-71.888
0
LINE
8
0
10
193.41875
20
-65.788
11
179.81875
21
-65.788
0
LINE
8
0
10
193.41875
20
-72.388
11
179.81875
21
-72.388
0
ARC
8
0
10
193.41875
20
-66.288
40
0.5
50
0
51
90
0
ARC
8
0
10
193.41875
20
-71.888
40
0.5
50
270
51
0
0
ARC
8
0
10
179.81875
20
-66.288
40
0.5
50
90
51
180
0
ARC
8
0
10
179.81875
20
-71.888
40
0.5
50
180
51
270
0
LINE
8
0
10
5.60625
20
-59.875
11
18.20625
21
-59.875
0
LINE
8
0
10
5.60625
20
-73.475
11
18.20625
21
-73.475
0
LINE
8
0
10
5.10625
20
-60.375
11
5.10625
21
-72.975
0
LINE
8
0
10
18.70625
20
-60.375
11
18.70625
21
-72.975
0
ARC
8
0
10
5.60625
20
-60.375
40
0.5
50
90
51
180
0
ARC
8
0
10
18.20625
20
-60.375
40
0.5
50
0
51
90
0
ARC
8
0
10
5.60625
20
-72.975
40
0.5
50
180
51
270
0
ARC
8
0
10
18.20625
20
-72.975
40
0.5
50
270
51
0
0
LINE
8
0
10
29.41875
20
-59.875
11
42.01875
21
-59.875
0
LINE
8
0
10
29.41875
20
-73.475
11
42.01875
21
-73.475
0
LINE
8
0
10
28.91875
20
-60.375
11
28.91875
21
-72.975
0
LINE
8
0
10
42.51875
20
-60.375
11
42.51875
21
-72.975
0
ARC
8
0
10
29.41875
20
-60.375
40
0.5
50
90
51
180
0
ARC
8
0
10
42.01875
20
-60.375
40
0.5
50
0
51
90
0
ARC
8
0
10
29.41875
20
-72.975
40
0.5
50
180
51
270
0
ARC
8
0
10
42.01875
20
-72.975
40
0.5
50
270
51
0
0
LINE
8
0
10
67.51875
20
-59.875
11
80.11875
21
-59.875
0
LINE
8
0
10
67.51875
20
-73.475
11
80.11875
21
-73.475
0
LINE
8
0
10
67.01875
20
-60.375
11
67.01875
21
-72.975
0
LINE
8
0
10
80.61875
20
-60.375
11
80.61875
21
-72.975
0
ARC
8
0
10
67.51875
20
-60.375
40
0.5
50
90
51
180
0
ARC
8
0
10
80.11875
20
-60.375
40
0.5
50
0
51
90
0
ARC
8
0
10
67.51875
20
-72.975
40
0.5
50
180
51
270
0
ARC
8
0
10
80.11875
20
-72.975
40
0.5
50
270
51
0
0
LINE
8
0
10
59.08075
20
-60.875
11
64.68075
21
-60.875
0
LINE
8
0
10
59.08075
20
-75.475
11
64.68075
21
-75.475
0
LINE
8
0
10
58.58075
20
-61.375
11
58.58075
21
-74.975
0
LINE
8
0
10
65.18075
20
-61.375
11
65.18075
21
-74.975
0
ARC
8
0
10
59.08075
20
-61.375
40
0.5
50
90
51
180
0
ARC
8
0
10
64.68075
20
-61.375
40
0.5
50
0
51
90
0
ARC
8
0
10
59.08075
20
-74.975
40
0.5
50
180
51
270
0
ARC
8
0
10
64.68075
20
-74.975
40
0.5
50
270
51
0
0
LINE
8
0
10
82.95675
20
-60.875
11
88.55675
21
-60.875
0
LINE
8
0
10
82.95675
20
-75.475
11
88.55675
21
-75.475
0
LINE
8
0
10
82.45675
20
-61.375
11
82.45675
21
-74.975
0
LINE
8
0
10
89.05675
20
-61.375
11
89.05675
21
-74.975
0
ARC
8
0
10
82.95675
20
-61.375
40
0.5
50
90
51
180
0
ARC
8
0
10
88.55675
20
-61.375
40
0.5
50
0
51
90
0
ARC
8
0
10
82.95675
20
-74.975
40
0.5
50
180
51
270
0
ARC
8
0
10
88.55675
20
-74.975
40
0.5
50
270
51
0
0
LINE
8
0
10
110.38125
20
-59.875
11
122.98125
21
-59.875
0
LINE
8
0
10
110.38125
20
-73.475
11
122.98125
21
-73.475
0
LINE
8
0
10
109.88125
20
-60.375
11
109.88125
21
-72.975
0
LINE
8
0
10
123.48125
20
-60.375
11
123.48125
21
-72.975
0
ARC
8
0
10
110.38125
20
-60.375
40
0.5
50
90
51
180
0
ARC
8
0
10
122.98125
20
-60.375
40
0.5
50
0
51
90
0
ARC
8
0
10
110.38125
20
-72.975
40
0.5
50
180
51
270
0
ARC
8
0
10
122.98125
20
-72.975
40
0.5
50
270
51
0
0
LINE
8
0
10
0
20
-76.2
11
200.025
21
-76.2
0
LINE
8
0
10
0
20
0
11
200.025
21
0
0
LINE
8
0
10
0
20
-76.2
11
0
21
0
0
LINE
8
0
10
200.025
20
-76.2
11
200.025
21
0
0
ENDSEC
0
EOF